<svg xmlns="http://www.w3.org/2000/svg" xmlns:xlink="http://www.w3.org/1999/xlink" zoomAndPan="magnify" preserveAspectRatio="xMidYMid meet" version="1.0" viewBox="59.49 97.12 256.04 180.5"><defs><clipPath id="61190cf69a"><path d="M 60 99 L 313 99 L 313 277 L 60 277 Z M 60 99 " clip-rule="nonzero"/></clipPath><clipPath id="f80fc78822"><path d="M 62.847656 97.117188 L 315.054688 101.9375 L 311.695312 277.613281 L 59.488281 272.789062 Z M 62.847656 97.117188 " clip-rule="nonzero"/></clipPath><clipPath id="60e47660c9"><path d="M 62.847656 97.117188 L 315.054688 101.9375 L 311.695312 277.613281 L 59.488281 272.789062 Z M 62.847656 97.117188 " clip-rule="nonzero"/></clipPath><clipPath id="07d7357bb2"><path d="M 73 102 L 314 102 L 314 271 L 73 271 Z M 73 102 " clip-rule="nonzero"/></clipPath><clipPath id="893b0e3bac"><path d="M 75.496094 100.199219 L 315.527344 104.789062 L 312.335938 271.765625 L 72.304688 267.175781 Z M 75.496094 100.199219 " clip-rule="nonzero"/></clipPath><clipPath id="8df03a9ea1"><path d="M 75.496094 100.199219 L 315.527344 104.789062 L 312.335938 271.765625 L 72.304688 267.175781 Z M 75.496094 100.199219 " clip-rule="nonzero"/></clipPath></defs><g clip-path="url(#61190cf69a)"><g clip-path="url(#f80fc78822)"><g clip-path="url(#60e47660c9)"><path fill="#c1d6eb" d="M 60.863281 200.441406 C 61.398438 172.320312 81.390625 162.507812 107.914062 157.324219 C 113.519531 123.882812 142.90625 98.703125 177.808594 99.371094 C 198.71875 99.769531 217.292969 109.363281 229.757812 124.222656 C 235.53125 122.453125 241.675781 121.550781 248.042969 121.671875 C 280.40625 122.289062 306.140625 149.039062 305.523438 181.414062 C 305.46875 184.261719 305.207031 187.058594 304.761719 189.789062 C 310.058594 198.648438 313.019531 209.046875 312.804688 220.128906 C 312.210938 251.335938 286.027344 277.019531 254.625 276.09375 L 207.25 275.1875 C 170.566406 274.488281 148.726562 248.226562 181.21875 220.59375 L 197.261719 206.953125 L 223.902344 263.050781 L 228.441406 259.421875 C 230.769531 257.558594 230.097656 253.617188 229.328125 250.515625 L 220.644531 214.714844 C 220.742188 214.644531 220.835938 214.566406 220.925781 214.480469 L 232.195312 203.628906 C 233.296875 202.570312 233.328125 200.800781 232.269531 199.699219 L 228.089844 195.355469 C 227.027344 194.253906 225.261719 194.21875 224.160156 195.28125 L 217.492188 201.703125 L 215.273438 192.558594 L 239.984375 172.808594 C 245.570312 168.34375 248.660156 158.6875 241.914062 151.421875 C 234.910156 144.402344 225.152344 147.121094 220.476562 152.53125 L 199.800781 176.480469 L 190.753906 173.914062 L 197.421875 167.492188 C 198.523438 166.429688 198.554688 164.664062 197.496094 163.558594 L 193.320312 159.21875 C 192.257812 158.117188 190.488281 158.082031 189.390625 159.140625 L 178.121094 169.992188 C 178.03125 170.078125 177.949219 170.167969 177.875 170.257812 L 142.441406 160.210938 C 139.375 159.328125 135.464844 158.5 133.515625 160.757812 L 129.714844 165.160156 L 184.730469 193.933594 L 170.25 209.714844 C 139.019531 243.730469 59.644531 264.265625 60.863281 200.441406 " fill-opacity="1" fill-rule="evenodd"/></g></g></g><g clip-path="url(#07d7357bb2)"><g clip-path="url(#893b0e3bac)"><g clip-path="url(#8df03a9ea1)"><path fill="#f0f5fa" d="M 73.609375 198.410156 C 74.117188 171.679688 93.144531 162.351562 118.386719 157.429688 C 123.722656 125.640625 151.6875 101.707031 184.90625 102.34375 C 204.804688 102.722656 222.484375 111.84375 234.347656 125.964844 C 239.839844 124.285156 245.691406 123.425781 251.75 123.542969 C 282.550781 124.132812 307.042969 149.554688 306.457031 180.328125 C 306.40625 183.035156 306.152344 185.695312 305.730469 188.292969 C 310.773438 196.710938 313.589844 206.597656 313.386719 217.128906 C 312.820312 246.792969 287.90625 271.207031 258.019531 270.324219 L 212.929688 269.460938 C 178.015625 268.792969 157.230469 243.832031 188.15625 217.570312 L 203.421875 204.601562 L 228.777344 257.925781 L 233.097656 254.472656 C 235.3125 252.703125 234.675781 248.957031 233.941406 246.011719 L 225.679688 211.980469 C 225.769531 211.914062 225.859375 211.839844 225.941406 211.757812 L 236.667969 201.445312 C 237.71875 200.4375 237.746094 198.757812 236.738281 197.707031 L 232.761719 193.582031 C 231.75 192.53125 230.070312 192.5 229.023438 193.507812 L 222.675781 199.609375 L 220.5625 190.921875 L 244.082031 172.148438 C 249.398438 167.902344 252.335938 158.726562 245.917969 151.820312 C 239.253906 145.148438 229.964844 147.730469 225.515625 152.875 L 205.839844 175.636719 L 197.226562 173.199219 L 203.574219 167.09375 C 204.625 166.085938 204.652344 164.40625 203.644531 163.355469 L 199.667969 159.230469 C 198.65625 158.183594 196.976562 158.148438 195.929688 159.15625 L 185.203125 169.46875 C 185.117188 169.550781 185.039062 169.636719 184.96875 169.722656 L 151.25 160.171875 C 148.328125 159.332031 144.605469 158.546875 142.75 160.691406 L 139.132812 164.878906 L 191.496094 192.226562 L 177.714844 207.226562 C 147.992188 239.558594 72.449219 259.074219 73.609375 198.410156 " fill-opacity="1" fill-rule="evenodd"/></g></g></g></svg>