<svg xmlns="http://www.w3.org/2000/svg" xmlns:xlink="http://www.w3.org/1999/xlink" zoomAndPan="magnify" preserveAspectRatio="xMidYMid meet" version="1.0" viewBox="15.37 120.7 348.46 117.02"><defs><g/><clipPath id="9e882a7b5f"><path d="M 246 132 L 353 132 L 353 217 L 246 217 Z M 246 132 " clip-rule="nonzero"/></clipPath><clipPath id="45a82a5e54"><path d="M 258.996094 120.703125 L 363.835938 149.601562 L 343.707031 222.628906 L 238.867188 193.730469 Z M 258.996094 120.703125 " clip-rule="nonzero"/></clipPath><clipPath id="6215e73ab3"><path d="M 258.996094 120.703125 L 363.835938 149.601562 L 343.707031 222.628906 L 238.867188 193.730469 Z M 258.996094 120.703125 " clip-rule="nonzero"/></clipPath><clipPath id="ea2e3798d2"><path d="M 251 134 L 353 134 L 353 215 L 251 215 Z M 251 134 " clip-rule="nonzero"/></clipPath><clipPath id="31cefc55f4"><path d="M 263.949219 123.339844 L 363.726562 150.84375 L 344.59375 220.253906 L 244.816406 192.75 Z M 263.949219 123.339844 " clip-rule="nonzero"/></clipPath><clipPath id="cd46ce19e8"><path d="M 263.949219 123.339844 L 363.726562 150.84375 L 344.59375 220.253906 L 244.816406 192.75 Z M 263.949219 123.339844 " clip-rule="nonzero"/></clipPath></defs><g clip-path="url(#9e882a7b5f)"><g clip-path="url(#45a82a5e54)"><g clip-path="url(#6215e73ab3)"><path fill="#e0eaf5" d="M 247.152344 163.65625 C 250.375 151.964844 259.769531 149.996094 271.402344 150.660156 C 277.308594 137.289062 292.269531 129.902344 306.777344 133.902344 C 315.46875 136.296875 322.207031 142.285156 325.828125 149.820312 C 328.429688 149.695312 331.09375 149.972656 333.738281 150.703125 C 347.191406 154.410156 355.089844 168.328125 351.382812 181.785156 C 351.054688 182.96875 350.648438 184.109375 350.171875 185.203125 C 351.4375 189.46875 351.566406 194.128906 350.296875 198.734375 C 346.722656 211.707031 333.046875 219.644531 320.027344 215.910156 L 300.332031 210.484375 C 285.082031 206.28125 278.761719 192.980469 295.28125 184.902344 L 303.433594 180.914062 L 308.582031 207.1875 L 310.867188 206.15625 C 312.039062 205.625 312.179688 203.90625 312.1875 202.53125 L 312.375 186.648438 C 312.425781 186.628906 312.472656 186.609375 312.515625 186.582031 L 318.382812 183.25 C 318.957031 182.925781 319.15625 182.191406 318.832031 181.617188 L 317.550781 179.355469 C 317.222656 178.78125 316.488281 178.578125 315.914062 178.90625 L 312.445312 180.875 L 312.492188 176.820312 L 324.921875 171.203125 C 327.730469 169.933594 330.050781 166.230469 328.007812 162.476562 C 325.828125 158.796875 321.464844 158.894531 318.933594 160.65625 L 307.746094 168.453125 L 304.238281 166.417969 L 307.707031 164.445312 C 308.28125 164.121094 308.484375 163.386719 308.160156 162.8125 L 306.875 160.554688 C 306.550781 159.980469 305.816406 159.777344 305.242188 160.101562 L 299.378906 163.433594 C 299.332031 163.460938 299.289062 163.488281 299.25 163.519531 L 285.519531 155.546875 C 284.332031 154.847656 282.785156 154.085938 281.730469 154.824219 L 279.671875 156.257812 L 299.589844 174.140625 L 291.855469 179.1875 C 275.1875 190.070312 239.839844 190.183594 247.152344 163.65625 " fill-opacity="1" fill-rule="evenodd"/></g></g></g><g clip-path="url(#ea2e3798d2)"><g clip-path="url(#31cefc55f4)"><g clip-path="url(#cd46ce19e8)"><path fill="#f0f5fa" d="M 252.691406 164.164062 C 255.753906 153.054688 264.695312 151.183594 275.765625 151.820312 C 281.382812 139.109375 295.617188 132.09375 309.425781 135.898438 C 317.695312 138.179688 324.109375 143.871094 327.558594 151.035156 C 330.035156 150.921875 332.570312 151.183594 335.085938 151.878906 C 347.890625 155.410156 355.414062 168.640625 351.886719 181.433594 C 351.578125 182.558594 351.1875 183.640625 350.734375 184.679688 C 351.941406 188.734375 352.066406 193.164062 350.859375 197.542969 C 347.460938 209.875 334.449219 217.417969 322.058594 213.863281 L 303.316406 208.695312 C 288.804688 204.695312 282.78125 192.050781 298.5 184.378906 L 306.257812 180.589844 L 311.164062 205.566406 L 313.339844 204.585938 C 314.453125 204.082031 314.585938 202.449219 314.59375 201.140625 L 314.769531 186.042969 C 314.816406 186.023438 314.859375 186.003906 314.902344 185.976562 L 320.484375 182.8125 C 321.027344 182.503906 321.21875 181.804688 320.910156 181.261719 L 319.691406 179.113281 C 319.378906 178.566406 318.679688 178.375 318.136719 178.683594 L 314.832031 180.554688 L 314.878906 176.703125 L 326.703125 171.367188 C 329.375 170.160156 331.582031 166.640625 329.636719 163.070312 C 327.5625 159.570312 323.410156 159.660156 321 161.335938 L 310.355469 168.746094 L 307.019531 166.808594 L 310.320312 164.9375 C 310.867188 164.628906 311.058594 163.929688 310.75 163.382812 L 309.527344 161.234375 C 309.21875 160.691406 308.519531 160.496094 307.972656 160.804688 L 302.394531 163.972656 C 302.347656 163.996094 302.308594 164.023438 302.269531 164.050781 L 289.199219 156.46875 C 288.070312 155.804688 286.597656 155.082031 285.59375 155.78125 L 283.636719 157.140625 L 302.597656 174.148438 L 295.238281 178.945312 C 279.378906 189.28125 245.742188 189.382812 252.691406 164.164062 " fill-opacity="1" fill-rule="evenodd"/></g></g></g><path stroke-linecap="butt" transform="matrix(1.460326, -0.201731, 0.201731, 1.460326, 177.993494, 142.226724)" fill="none" stroke-linejoin="miter" d="M 1.381247 38.423274 C 0.353054 42.167891 -0.859551 46.957001 0.986986 50.64935 C 5.197495 59.071173 13.844616 50.422002 16.844483 45.746041 C 17.831234 44.140981 15.465542 42.928785 14.365333 44.309528 C 12.68956 46.506859 10.844874 49.21049 8.310666 50.53491 C 3.224586 53.253533 2.774977 46.787674 3.225857 43.562487 C 4.492023 35.364908 8.309261 27.463563 11.07053 19.731986 C 11.705309 17.944559 8.887586 17.196878 8.252184 18.930721 C 5.943658 25.379357 3.225746 31.790165 1.381247 38.423274 Z M 34.322647 44.717872 C 33.518974 46.043281 29.645511 50.943628 27.406921 50.06998 C 25.26519 49.153539 27.406267 44.013879 29.068257 40.618956 C 29.309199 40.210879 29.477819 39.803511 29.703461 39.40937 C 30.111021 38.647146 30.464412 38.083408 30.633553 37.788458 C 31.560658 36.169809 29.068383 34.731483 28.098194 36.352205 C 28.03988 36.464521 27.927981 36.577459 27.856441 36.746796 C 27.745354 36.873221 27.689925 37.042108 27.575662 37.210893 C 26.998409 38.310789 26.195618 39.745992 25.434154 41.366124 C 23.774268 44.648991 21.858498 47.944659 18.984157 49.620655 C 14.885746 51.986205 15.688877 47.140531 16.561454 44.832245 C 17.532804 42.409208 18.927634 40.154343 19.955091 37.78988 C 20.716295 36.113539 18.223761 34.619005 17.478928 36.351105 C 15.858265 39.930956 8.252681 51.690488 16.26604 53.070302 C 19.152159 53.535866 21.575896 51.984867 23.590407 49.620336 C 23.830098 50.886583 24.464476 51.929162 25.674063 52.564366 C 29.829105 54.745971 34.956496 49.211019 36.858007 46.154124 C 37.787736 44.535838 35.308586 43.099325 34.322647 44.717872 Z M 50.422157 45.633837 C 46.675738 46.322691 42.465125 47.196188 38.760684 48.85916 C 38.703695 48.690793 38.702916 48.522165 38.705123 48.351276 C 38.479698 47.252844 38.254013 46.098203 38.12752 45.000063 C 38.013378 44.141696 37.901151 43.211372 38.01447 42.352328 C 38.126464 41.773968 38.310157 41.141314 38.47836 40.562693 C 40.267489 38.648513 41.649236 38.831364 42.69131 41.085826 C 41.998989 42.747608 44.705469 43.506671 45.394353 41.83104 C 47.252806 37.323742 41.421594 35.309151 38.012915 37.154751 C 33.804191 39.408766 35.126262 45.000078 35.818 48.803069 C 35.88786 49.323629 36.000183 49.788531 36.056296 50.253693 C 34.493646 51.22549 33.111714 52.380072 31.958993 53.831134 C 29.761564 56.590358 27.339552 64.267154 32.943259 64.733639 C 37.731267 65.140941 39.224131 59.775316 39.337402 56.070155 C 39.394088 54.633531 39.338096 53.141218 39.169496 51.689522 C 43.211862 49.845863 48.225601 48.987014 51.226695 48.465367 C 53.014054 48.113093 52.266537 45.29479 50.422157 45.633837 Z M 36.464674 56.069202 C 36.394533 57.351497 36.281638 58.788381 35.704646 59.944486 C 34.49193 62.19776 32.365663 61.789014 32.536544 59.196552 C 32.648039 56.646709 34.210258 54.690483 36.337358 53.253652 C 36.464884 54.17004 36.465055 55.09826 36.464674 56.069202 Z M 36.464674 56.069202 " stroke="#e0eaf5" stroke-width="1.875185" stroke-opacity="1" stroke-miterlimit="4"/><g fill="#f0f5fa" fill-opacity="1"><g transform="translate(190.097335, 229.846291)"><g><path d="M -2.332031 -31.789062 C -3.089844 -26.101562 -3.894531 -18.863281 -0.453125 -13.847656 C 7.394531 -2.394531 18.289062 -16.777344 21.726562 -24.207031 C 22.832031 -26.765625 19.132812 -28.054688 17.8125 -25.8125 C 15.8125 -22.273438 13.660156 -17.941406 10.222656 -15.492188 C 3.355469 -10.507812 1.378906 -19.851562 1.402344 -24.660156 C 1.601562 -36.882812 5.566406 -49.191406 8.050781 -61.039062 C 8.617188 -63.777344 4.339844 -64.304688 3.761719 -61.648438 C 1.695312 -51.746094 -0.972656 -41.847656 -2.332031 -31.789062 Z M -2.332031 -31.789062 "/></g></g></g><g fill="#f0f5fa" fill-opacity="1"><g transform="translate(210.231322, 227.064965)"><g><path d="M 26.90625 -26.46875 C 25.996094 -24.367188 21.339844 -16.425781 17.878906 -17.238281 C 14.578125 -18.152344 16.660156 -26.082031 18.414062 -31.390625 C 18.671875 -32.027344 18.839844 -32.652344 19.097656 -33.289062 C 19.535156 -34.464844 19.925781 -35.375 20.121094 -35.832031 C 21.140625 -38.378906 17.226562 -39.984375 16.121094 -37.425781 C 16.0625 -37.246094 15.914062 -37.054688 15.867188 -36.789062 C 15.722656 -36.597656 15.671875 -36.335938 15.539062 -36.058594 C 14.917969 -34.339844 14.027344 -32.074219 13.257812 -29.5625 C 11.480469 -24.421875 9.363281 -19.238281 5.488281 -16.210938 C -0.015625 -11.929688 0.183594 -19.171875 0.984375 -22.714844 C 1.925781 -26.453125 3.496094 -30.015625 4.535156 -33.679688 C 5.292969 -36.273438 1.367188 -37.964844 0.621094 -35.285156 C -1.015625 -29.738281 -9.761719 -11.015625 2.226562 -10.609375 C 6.53125 -10.519531 9.753906 -13.28125 12.226562 -17.144531 C 12.820312 -15.335938 13.957031 -13.949219 15.851562 -13.265625 C 22.363281 -10.902344 28.742188 -20.023438 30.90625 -24.875 C 31.925781 -27.417969 28.015625 -29.023438 26.90625 -26.46875 Z M 26.90625 -26.46875 "/></g></g></g><g fill="#f0f5fa" fill-opacity="1"><g transform="translate(240.221686, 222.922071)"><g><path d="M 20.605469 -24.222656 C 15.269531 -22.457031 9.296875 -20.34375 4.242188 -17.15625 C 4.121094 -17.398438 4.085938 -17.648438 4.050781 -17.902344 C 3.492188 -19.457031 2.925781 -21.09375 2.535156 -22.671875 C 2.191406 -23.914062 1.835938 -25.238281 1.832031 -26.523438 C 1.882812 -27.390625 2.007812 -28.351562 2.144531 -29.230469 C 4.371094 -32.371094 6.429688 -32.394531 8.398438 -29.320312 C 7.726562 -26.738281 11.835938 -26.1875 12.507812 -28.773438 C 14.296875 -35.714844 5.382812 -37.488281 0.78125 -34.105469 C -4.914062 -29.972656 -1.847656 -22.066406 -0.0664062 -16.644531 C 0.121094 -15.898438 0.382812 -15.25 0.5625 -14.585938 C -1.515625 -12.839844 -3.304688 -10.875 -4.699219 -8.539062 C -7.34375 -4.050781 -9.332031 7.640625 -1.066406 7.1875 C 6.007812 6.8125 7.113281 -1.328125 6.539062 -6.742188 C 6.332031 -8.859375 5.945312 -11.039062 5.402344 -13.109375 C 10.925781 -16.621094 18.082031 -18.894531 22.355469 -20.257812 C 24.898438 -21.125 23.234375 -25.101562 20.605469 -24.222656 Z M 2.324219 -6.160156 C 2.496094 -4.292969 2.621094 -2.164062 2.011719 -0.363281 C 0.695312 3.167969 -2.503906 3.007812 -2.773438 -0.820312 C -3.117188 -4.546875 -1.238281 -7.726562 1.585938 -10.265625 C 1.941406 -8.941406 2.128906 -7.589844 2.324219 -6.160156 Z M 2.324219 -6.160156 "/></g></g></g><path stroke-linecap="butt" transform="matrix(1.474194, 0.000000000000000023, -0.000000000000000023, 1.474194, 16.085249, 138.360473)" fill="none" stroke-linejoin="miter" d="M 23.381889 34.957448 C 22.170951 37.956969 20.90172 40.900845 19.28272 43.733431 C 18.4242 45.296785 17.382847 47.013825 16.057971 48.296306 C 14.847034 49.435699 13.803031 50.421408 13.283679 48.632824 C 12.817323 46.844241 14.269387 43.619491 14.791389 42.000492 C 15.297492 40.211909 16.002326 38.423325 16.397139 36.634742 C 16.746907 35.084636 14.550261 33.984989 13.747386 35.47945 C 12.592094 37.676095 11.495096 39.859492 10.339804 42.000492 C 9.014927 44.311077 7.170699 48.632824 4.804469 49.957701 C 1.916238 51.5767 3.763116 45.000013 4.171178 43.436658 C 4.69053 41.253262 5.5517 39.056616 5.959762 36.801676 C 6.240635 35.013093 3.537887 34.268512 3.241115 36.057096 C 2.663469 39.409034 -3.335572 52.620703 3.127176 53.590512 C 6.071051 54.056869 8.437281 50.421408 9.873447 48.35195 C 10.000635 48.169117 10.05893 47.999533 10.170219 47.888244 C 10.05893 49.846411 10.509388 51.521055 12.014448 52.379575 C 18.649429 56.197869 24.706765 39.464678 26.211825 35.773572 C 26.903411 34.043283 24.070824 33.22451 23.381889 34.957448 Z M 48.066989 44.478011 C 46.967341 46.380534 44.545467 50.310118 42.123593 49.732472 C 38.546426 48.929597 40.279364 43.322719 41.842719 39.578618 C 42.36207 38.47897 42.828427 37.562156 43.109301 36.87322 C 43.912176 35.195926 41.432007 33.690866 40.629132 35.423805 C 40.390654 35.773572 40.165425 36.22668 39.940196 36.746032 C 32.671923 32.718407 20.671191 44.478011 27.306173 50.832119 C 30.88334 54.168159 34.333318 51.690639 37.165904 47.829949 C 37.335489 49.902056 38.262902 51.746284 40.335009 52.787637 C 44.545467 54.928638 48.883113 48.985241 50.602803 45.930076 C 51.532866 44.311077 48.997052 42.803367 48.066989 44.478011 Z M 32.433445 48.577179 C 28.405821 51.351471 27.995109 45.577659 29.672403 43.041845 C 31.574925 40.156264 35.488611 37.379323 38.840548 39.295094 C 37.221549 42.859012 35.319027 46.619012 32.433445 48.577179 Z M 58.689849 34.846159 C 56.490554 34.50699 54.646326 35.254221 53.082972 36.690387 C 53.138616 35.943156 53.138616 35.254221 52.971682 34.62093 C 52.505325 32.832346 49.969512 33.576927 50.321929 35.309865 C 50.716742 37.506511 49.224931 41.014784 48.59164 43.09749 C 48.239223 44.478011 47.84441 45.858533 47.378053 47.252303 C 47.028286 48.224762 46.744762 49.21047 46.506284 50.013346 C 46.281055 50.590992 46.111471 51.168638 45.928638 51.690639 C 45.295347 53.479223 48.125283 54.226453 48.758574 52.43787 C 49.394515 50.479702 50.027806 48.521535 50.661097 46.507722 C 51.872034 43.155785 53.491034 39.803847 56.265325 38.253741 C 59.43443 36.520803 59.32314 39.578618 58.970723 41.830908 C 58.393077 45.408075 56.956911 48.858053 55.504846 52.154346 C 54.81591 53.83164 57.293429 55.323451 58.053909 53.590512 C 59.43443 50.310118 66.294641 36.057096 58.689849 34.846159 Z M 88.915583 18.576674 C 89.548874 16.846385 86.774583 16.099155 86.082997 17.832094 C 83.775062 24.225948 81.180954 30.633051 78.928664 37.154094 C 73.337685 32.999281 66.872287 37.506511 64.858475 43.381014 C 63.40641 47.535826 65.197643 54.282098 70.91581 52.787637 C 72.534809 52.379575 73.970976 51.351471 75.237558 49.902056 C 74.718206 52.209991 74.323393 54.576221 74.02662 56.886805 C 73.801391 58.789328 76.745267 58.733683 76.970496 56.886805 C 77.717727 50.479702 79.50631 44.311077 81.647311 38.198096 C 84.350059 31.788343 86.491059 25.156011 88.915583 18.576674 Z M 67.449933 48.691119 C 66.125057 46.324889 67.971935 42.803367 69.476994 41.014784 C 71.718686 38.309386 74.659911 37.437617 77.717727 39.520323 C 77.773371 39.578618 77.773371 39.578618 77.829016 39.578618 C 77.084436 41.253262 76.223266 42.859012 75.295852 44.422367 C 74.084915 46.436179 69.927452 52.957221 67.449933 48.691119 Z M 99.819318 42.352909 C 97.847901 44.774784 95.775794 47.480182 92.945858 49.043536 C 90.98769 50.140534 88.621461 50.310118 87.12965 48.224762 C 86.424815 47.310597 86.313526 46.266595 86.496359 45.169597 C 90.523984 44.886073 96.931087 42.170076 95.834089 36.987159 C 94.790086 31.957928 88.621461 35.195926 86.721588 37.676095 C 83.36965 42.000492 81.411483 49.902056 87.98817 52.379575 C 93.637444 54.576221 98.833609 48.296306 101.83313 44.366722 C 102.932778 42.9862 101.030255 40.900845 99.819318 42.352909 Z M 93.073046 37.562156 C 93.579149 38.309386 92.312567 39.859492 91.84886 40.323198 C 90.635273 41.59243 89.029523 42.170076 87.354879 42.464199 C 87.354879 42.352909 87.410524 42.225721 87.466168 42.111782 C 87.932525 41.083678 91.620981 35.195926 93.073046 37.562156 Z M 113.605983 35.831867 C 109.790339 34.732219 106.790818 35.998801 104.310649 38.309386 C 104.551777 37.379323 104.832651 36.520803 105.129423 35.590739 C 105.635526 33.873699 102.930128 33.11322 102.410776 34.846159 C 100.97196 39.464678 99.636485 44.085848 97.97244 48.632824 C 97.508733 49.676827 97.100671 50.646637 96.761503 51.5767 C 96.128212 53.365283 98.889254 54.056869 99.57819 52.32393 C 100.044547 51.295826 100.452609 50.196179 100.847422 49.154826 C 103.044067 43.733431 106.790818 36.928865 112.789859 38.648554 C 114.578443 39.167906 115.394567 36.351218 113.605983 35.831867 Z M 113.605983 35.831867 " stroke="#e0eaf5" stroke-width="1.875185" stroke-opacity="1" stroke-miterlimit="4"/><g fill="#f0f5fa" fill-opacity="1"><g transform="translate(16.108284, 226.812109)"><g><path d="M 34.445312 -36.910156 C 32.65625 -32.488281 30.785156 -28.148438 28.40625 -23.984375 C 27.128906 -21.6875 25.597656 -19.136719 23.644531 -17.265625 C 21.855469 -15.5625 20.324219 -14.117188 19.5625 -16.753906 C 18.878906 -19.390625 21.007812 -24.152344 21.773438 -26.535156 C 22.539062 -29.171875 23.558594 -31.808594 24.152344 -34.445312 C 24.664062 -36.738281 21.433594 -38.355469 20.242188 -36.144531 C 18.539062 -32.914062 16.925781 -29.679688 15.222656 -26.535156 C 13.265625 -23.132812 10.546875 -16.753906 7.058594 -14.796875 C 2.804688 -12.417969 5.527344 -22.113281 6.125 -24.410156 C 6.890625 -27.640625 8.164062 -30.871094 8.757812 -34.1875 C 9.183594 -36.824219 5.1875 -37.929688 4.761719 -35.292969 C 3.914062 -30.363281 -4.933594 -10.886719 4.59375 -9.441406 C 8.929688 -8.757812 12.417969 -14.117188 14.542969 -17.179688 C 14.714844 -17.433594 14.796875 -17.691406 14.96875 -17.859375 C 14.796875 -14.96875 15.476562 -12.5 17.691406 -11.226562 C 27.46875 -5.613281 36.398438 -30.277344 38.609375 -35.71875 C 39.632812 -38.269531 35.464844 -39.460938 34.445312 -36.910156 Z M 34.445312 -36.910156 "/></g></g></g><g fill="#f0f5fa" fill-opacity="1"><g transform="translate(53.952233, 226.812109)"><g><path d="M 32.996094 -22.878906 C 31.382812 -20.070312 27.808594 -14.289062 24.238281 -15.136719 C 18.964844 -16.328125 21.515625 -24.578125 23.8125 -30.105469 C 24.578125 -31.722656 25.257812 -33.082031 25.683594 -34.105469 C 26.875 -36.570312 23.21875 -38.78125 22.027344 -36.230469 C 21.6875 -35.71875 21.347656 -35.039062 21.007812 -34.273438 C 10.289062 -40.226562 -7.398438 -22.878906 2.382812 -13.523438 C 7.652344 -8.589844 12.757812 -12.246094 16.925781 -17.945312 C 17.179688 -14.882812 18.539062 -12.160156 21.601562 -10.628906 C 27.808594 -7.484375 34.1875 -16.242188 36.738281 -20.75 C 38.101562 -23.132812 34.359375 -25.34375 32.996094 -22.878906 Z M 9.949219 -16.839844 C 3.996094 -12.757812 3.402344 -21.261719 5.867188 -25.003906 C 8.675781 -29.257812 14.457031 -33.339844 19.390625 -30.53125 C 17.007812 -25.257812 14.203125 -19.730469 9.949219 -16.839844 Z M 9.949219 -16.839844 "/></g></g></g><g fill="#f0f5fa" fill-opacity="1"><g transform="translate(86.948749, 226.812109)"><g><path d="M 15.648438 -37.082031 C 12.417969 -37.589844 9.695312 -36.484375 7.398438 -34.359375 C 7.484375 -35.464844 7.484375 -36.484375 7.230469 -37.421875 C 6.546875 -40.058594 2.804688 -38.953125 3.316406 -36.398438 C 3.914062 -33.167969 1.699219 -27.980469 0.765625 -24.917969 C 0.253906 -22.878906 -0.339844 -20.835938 -1.019531 -18.796875 C -1.53125 -17.347656 -1.957031 -15.902344 -2.296875 -14.714844 C -2.636719 -13.863281 -2.890625 -13.011719 -3.148438 -12.246094 C -4.082031 -9.609375 0.0859375 -8.503906 1.019531 -11.140625 C 1.957031 -14.03125 2.890625 -16.925781 3.828125 -19.902344 C 5.613281 -24.832031 7.996094 -29.765625 12.078125 -32.0625 C 16.753906 -34.613281 16.585938 -30.105469 16.074219 -26.789062 C 15.222656 -21.515625 13.097656 -16.414062 10.972656 -11.566406 C 9.949219 -9.101562 13.605469 -6.890625 14.714844 -9.441406 C 16.753906 -14.289062 26.875 -35.292969 15.648438 -37.082031 Z M 15.648438 -37.082031 "/></g></g></g><g fill="#f0f5fa" fill-opacity="1"><g transform="translate(110.930764, 226.812109)"><g><path d="M 36.230469 -61.0625 C 37.164062 -63.613281 33.082031 -64.71875 32.0625 -62.167969 C 28.660156 -52.730469 24.832031 -43.289062 21.515625 -33.679688 C 13.265625 -39.800781 3.742188 -33.167969 0.765625 -24.492188 C -1.359375 -18.371094 1.277344 -8.417969 9.695312 -10.628906 C 12.078125 -11.226562 14.203125 -12.757812 16.074219 -14.882812 C 15.308594 -11.480469 14.714844 -7.996094 14.289062 -4.59375 C 13.949219 -1.785156 18.285156 -1.871094 18.625 -4.59375 C 19.730469 -14.03125 22.367188 -23.132812 25.515625 -32.148438 C 29.511719 -41.585938 32.65625 -51.367188 36.230469 -61.0625 Z M 4.59375 -16.667969 C 2.636719 -20.15625 5.359375 -25.34375 7.570312 -27.980469 C 10.886719 -31.976562 15.222656 -33.253906 19.730469 -30.191406 C 19.816406 -30.105469 19.816406 -30.105469 19.902344 -30.105469 C 18.796875 -27.640625 17.519531 -25.257812 16.160156 -22.960938 C 14.371094 -19.984375 8.25 -10.375 4.59375 -16.667969 Z M 4.59375 -16.667969 "/></g></g></g><g fill="#f0f5fa" fill-opacity="1"><g transform="translate(138.654657, 226.812109)"><g><path d="M 24.578125 -26.023438 C 21.6875 -22.453125 18.625 -18.453125 14.457031 -16.160156 C 11.566406 -14.542969 8.078125 -14.289062 5.867188 -17.347656 C 4.847656 -18.710938 4.675781 -20.242188 4.933594 -21.855469 C 10.886719 -22.28125 20.324219 -26.277344 18.710938 -33.933594 C 17.179688 -41.332031 8.078125 -36.570312 5.273438 -32.914062 C 0.339844 -26.535156 -2.550781 -14.882812 7.144531 -11.226562 C 15.476562 -7.996094 23.132812 -17.265625 27.554688 -23.046875 C 29.171875 -25.089844 26.363281 -28.148438 24.578125 -26.023438 Z M 14.628906 -33.082031 C 15.394531 -31.976562 13.523438 -29.679688 12.84375 -29 C 11.054688 -27.128906 8.675781 -26.277344 6.207031 -25.855469 C 6.207031 -26.023438 6.292969 -26.195312 6.378906 -26.363281 C 7.058594 -27.894531 12.5 -36.570312 14.628906 -33.082031 Z M 14.628906 -33.082031 "/></g></g></g><g fill="#f0f5fa" fill-opacity="1"><g transform="translate(162.55162, 226.812109)"><g><path d="M 21.007812 -35.632812 C 15.394531 -37.25 10.972656 -35.378906 7.3125 -31.976562 C 7.652344 -33.339844 8.078125 -34.613281 8.503906 -35.972656 C 9.269531 -38.527344 5.273438 -39.632812 4.507812 -37.082031 C 2.382812 -30.277344 0.425781 -23.472656 -2.042969 -16.753906 C -2.722656 -15.222656 -3.316406 -13.777344 -3.828125 -12.417969 C -4.761719 -9.78125 -0.679688 -8.757812 0.339844 -11.3125 C 1.019531 -12.84375 1.617188 -14.457031 2.210938 -15.988281 C 5.441406 -23.984375 10.972656 -34.019531 19.816406 -31.46875 C 22.453125 -30.703125 23.644531 -34.867188 21.007812 -35.632812 Z M 21.007812 -35.632812 "/></g></g></g></svg>